<svg xmlns="http://www.w3.org/2000/svg" width="40" height="40" viewBox="0 0 40 40">
  <g fill="none" fill-rule="evenodd">
    <circle cx="20" cy="20" r="18" fill="#2FA3FF"/>
    <path fill="#003C68" d="M14,26 L26,26.0182097 L26.0003462,36.9756434 C24.1235748,37.6390303 22.1039419,38 20,38 C17.9333021,38 15.9479548,37.651697 14.0994557,37.0105886 L14,26 Z"/>
    <path fill="#FFE7C5" d="M23.6863327,14.7657894 C23.6863327,14.1771701 24.1635029,13.6999999 24.7521222,13.6999999 C25.3407414,13.6999999 25.8179116,14.1771701 25.8179116,14.7657894 L25.8179116,21.1964703 C25.8179116,21.9728249 25.5107241,22.6774319 25.0112663,23.1953744 L25.0102518,26.0180696 L15.8705435,26.0180696 L15.8698901,24.0524088 C13.5019047,23.8863154 12.317912,22.8604314 12.317912,20.9747567 L12.317912,18.6294115 L15.159912,18.6289999 L15.1600172,14.7657894 C15.1600172,14.1771701 15.6371874,13.6999999 16.2258066,13.6999999 C16.8144259,13.6999999 17.2915961,14.1771701 17.2915961,14.7657894 L17.2915961,15.2506191 C17.2915961,15.4468255 17.4506528,15.6058822 17.6468592,15.6058822 C17.8430656,15.6058822 18.0021224,15.4468255 18.0021224,15.2506191 L18.0021224,15.2506191 L18.0021224,14.7657894 C18.0021224,14.1771701 18.4792925,13.6999999 19.0679118,13.6999999 C19.6565311,13.6999999 20.1337012,14.1771701 20.1337012,14.7657894 L20.1337012,15.2506191 C20.1337012,15.4468255 20.292758,15.6058822 20.4889644,15.6058822 C20.6851708,15.6058822 20.8442275,15.4468255 20.8442275,15.2506191 L20.8442275,15.2506191 L20.8442275,14.7657894 C20.8442275,14.1771701 21.3213977,13.6999999 21.910017,13.6999999 C22.4986362,13.6999999 22.9758064,14.1771701 22.9758064,14.7657894 L22.9758064,15.2506191 C22.9758064,15.4468255 23.1348632,15.6058822 23.3310696,15.6058822 C23.527276,15.6058822 23.6863327,15.4468255 23.6863327,15.2506191 L23.6863327,15.2506191 L23.6863327,14.7657894 Z M15.1600172,19.3239519 L14.4494909,19.3239519 L14.4494909,20.0153248 C14.4494909,20.2115313 14.6085476,20.370588 14.804754,20.370588 C15.0009604,20.370588 15.1600172,20.2115313 15.1600172,20.0153248 L15.1600172,20.0153248 L15.1600172,19.3239519 Z"/>
    <path fill="#F8B100" d="M9.99469549,16.5009522 L15.1596019,15.866 L15.1596019,19.494 L10.4339018,20.0743663 C9.93846894,21.7366385 8.49969789,23.0324907 6.66802914,23.2573913 C5.68132653,23.3785432 4.73006759,23.1705672 3.9243855,22.719509 L3.87847205,22.6931468 L3.65857697,20.9056215 L6.22491868,20.5915217 L7.01290847,18.6812511 L5.78618906,17.0183557 L3.21984733,17.3324554 L3.00060189,15.5468446 C3.6782911,14.8942838 4.56552739,14.4479576 5.57120505,14.3244759 C7.40248441,14.0996231 9.11167536,15.0084783 9.99469549,16.5009522 Z M35.1599133,11.5981776 L35.3783426,13.3838887 L32.6903158,13.7149443 L32.0250708,15.6101437 L33.1290455,17.2881103 L35.8170723,16.9570548 L36.0369665,18.7445802 L35.9987946,18.7812668 C35.3261656,19.4138388 34.453477,19.8457673 33.4667745,19.9669191 C31.6351056,20.1918198 29.9255773,19.2825301 29.0427209,17.7894907 L25.8176019,18.185 L25.8176019,14.557 L28.6043938,14.2159686 C29.1001223,12.5542056 30.5386709,11.2588566 32.3699504,11.0340038 C33.375628,10.9105221 34.3444856,11.1289486 35.1599133,11.5981776 Z"/>
  </g>
</svg>
