<svg width="16" height="16" viewBox="0 0 16 16" fill="none" xmlns="http://www.w3.org/2000/svg">
<path fill-rule="evenodd" clip-rule="evenodd" d="M3 2V9.7H4.14628V7.016H5.58145L6.80657 9.06739L7.65195 8.22201L6.78365 6.785C7.68762 6.477 8.33066 5.718 8.33066 4.431C8.33066 3.76 8.13495 3.188 7.79013 2.77C7.37076 2.286 6.72773 2 5.90763 2H3ZM4.353 5.817H5.77744C6.47384 5.817 6.917 5.311 6.917 4.53V4.508C6.917 3.683 6.48967 3.232 5.76953 3.232H4.353V5.817Z" fill="#6E6E6E"/>
<path fill-rule="evenodd" clip-rule="evenodd" d="M10.7844 11.0344L9.90938 10.1594L7.42653 12.6422L8.30157 13.5173L10.7844 11.0344Z" fill="#389FD6"/>
<path fill-rule="evenodd" clip-rule="evenodd" d="M8.96875 8.79688C8.96875 10.5832 10.4168 12.0312 12.2031 12.0312C13.9894 12.0312 15.4375 10.5832 15.4375 8.79688C15.4375 7.01058 13.9894 5.5625 12.2031 5.5625C10.4168 5.5625 8.96875 7.01058 8.96875 8.79688ZM10.0938 8.79688C10.0938 9.96185 11.0381 10.9062 12.2031 10.9062C13.3681 10.9062 14.3125 9.96185 14.3125 8.79688C14.3125 7.6319 13.3681 6.6875 12.2031 6.6875C11.0381 6.6875 10.0938 7.6319 10.0938 8.79688Z" fill="#389FD6"/>
</svg>
