<svg width="16" height="16" viewBox="0 0 16 16" fill="none" xmlns="http://www.w3.org/2000/svg">
<path fill-rule="evenodd" clip-rule="evenodd" d="M3 2V9.7H4.14628V7.016H5.58145L6.80657 9.06739L7.65195 8.22201L6.78365 6.785C7.68762 6.477 8.33066 5.718 8.33066 4.431C8.33066 3.76 8.13495 3.188 7.79013 2.77C7.37076 2.286 6.72773 2 5.90763 2H3ZM4.353 5.817H5.77744C6.47384 5.817 6.917 5.311 6.917 4.53V4.508C6.917 3.683 6.48967 3.232 5.76953 3.232H4.353V5.817Z" fill="#AFB1B3"/>
<path fill-rule="evenodd" clip-rule="evenodd" d="M10.7725 11.1909L9.78939 10.2009L7.00001 13.01L7.98309 14L10.7725 11.1909Z" fill="#3592C4"/>
<path fill-rule="evenodd" clip-rule="evenodd" d="M8.73265 8.65937C8.73265 10.6804 10.3595 12.3187 12.3663 12.3187C14.3731 12.3187 16 10.6804 16 8.65937C16 6.63836 14.3731 5 12.3663 5C10.3595 5 8.73265 6.63836 8.73265 8.65937ZM9.99651 8.65937C9.99651 9.97742 11.0575 11.0459 12.3663 11.0459C13.6751 11.0459 14.7361 9.97742 14.7361 8.65937C14.7361 7.34132 13.6751 6.27282 12.3663 6.27282C11.0575 6.27282 9.99651 7.34132 9.99651 8.65937Z" fill="#3592C4"/>
</svg>
