<svg width="13" height="13" viewBox="0 0 13 13" fill="none" xmlns="http://www.w3.org/2000/svg">
<path fill-rule="evenodd" clip-rule="evenodd" d="M3.90763 1C4.72773 1 5.37076 1.286 5.79013 1.77C6.13495 2.188 6.33066 2.76 6.33066 3.431C6.33066 4.718 5.68762 5.477 4.78365 5.785L5.651 7.221L4.806 8.067L3.58145 6.016H2.14628V8.7H1V1H3.90763ZM2.353 4.817H3.77744C4.47384 4.817 4.917 4.311 4.917 3.53V3.508C4.917 2.683 4.48967 2.232 3.76953 2.232H2.353V4.817Z" fill="#6E6E6E"/>
<path fill-rule="evenodd" clip-rule="evenodd" d="M8.36401 10.3639L7.5862 9.58607L5.37922 11.7931L6.15703 12.5709L8.36401 10.3639Z" fill="#6E6E6E"/>
<path fill-rule="evenodd" clip-rule="evenodd" d="M6.75 8.375C6.75 9.96282 8.03718 11.25 9.625 11.25C11.2128 11.25 12.5 9.96282 12.5 8.375C12.5 6.78718 11.2128 5.5 9.625 5.5C8.03718 5.5 6.75 6.78718 6.75 8.375ZM7.75 8.375C7.75 9.41053 8.58947 10.25 9.625 10.25C10.6605 10.25 11.5 9.41053 11.5 8.375C11.5 7.33947 10.6605 6.5 9.625 6.5C8.58947 6.5 7.75 7.33947 7.75 8.375Z" fill="#6E6E6E"/>
</svg>
