<?xml version="1.0" encoding="UTF-8"?>
<svg xmlns="http://www.w3.org/2000/svg" width="605" height="112.5" xmlns:xlink="http://www.w3.org/1999/xlink" viewBox="0 0 605 112.5">
  <defs>
    <linearGradient id="linear-gradient" x1="28.99277" y1="30.13779" x2="73.64028" y2="74.7853" gradientUnits="userSpaceOnUse">
      <stop offset=".27698" stop-color="#3bea62"/>
      <stop offset=".83781" stop-color="#087cfa"/>
    </linearGradient>
  </defs>
  <g id="Layer_1" data-name="Layer 1">
    <rect width="605" height="112.5" fill="none"/>
  </g>
  <g id="Layer_3" data-name="Layer 3">
    <g>
      <g>
        <g>
          <path d="m105.02548,38.84189l1.50272-1.30887c1.13426,1.73645,2.29327,2.66998,4.21807,2.66998,2.08154,0,3.61038-1.52197,3.61038-4.4848v-12.52361h2.10904v12.49611c0,2.19015-.63244,3.84549-1.68695,4.91375-1.0284,1.01465-2.42525,1.54809-4.05996,1.54809-2.76759,0-4.53292-1.38861-5.6933-3.31066Z"/>
          <path d="m119.55364,35.0239v-.05362c0-3.97885,2.76759-7.18365,6.53746-7.18365,4.03247,0,6.35186,3.25842,6.35186,7.28951,0,.2681,0,.42758-.02612.66818h-10.80641c.2901,2.99032,2.37163,4.67315,4.79689,4.67315,1.87119,0,3.18968-.77405,4.29644-1.94955l1.26487,1.14801c-1.37074,1.54947-3.03157,2.59024-5.61356,2.59024-3.74375,0-6.80144-2.91058-6.80144-7.18227Zm10.8339-.80154c-.21035-2.5105-1.63471-4.69927-4.34868-4.69927-2.37301,0-4.16583,2.0018-4.42843,4.69927h8.77711Z"/>
          <path d="m136.05884,38.22733v-8.33028h-1.89731v-1.81619h1.89731v-4.16583h2.03067v4.16583h4.32256v1.81619h-4.32256v8.06356c0,1.68283.92253,2.29602,2.29327,2.29602.68468,0,1.26487-.13336,1.97705-.47983v1.76257c-.71218.37259-1.4766.58707-2.45138.58707-2.18878,0-3.84961-1.09576-3.84961-3.89911Z"/>
          <path d="m145.68287,23.1946h7.85458c2.10904,0,3.76987.61319,4.82439,1.65533.76442.80154,1.18513,1.78869,1.18513,2.99032v.05362c0,2.42938-1.47523,3.68463-2.9257,4.32531,2.18878.66818,3.9541,1.94955,3.9541,4.51367v.05224c0,3.2048-2.66173,5.10073-6.69557,5.10073h-8.19692v-18.69123Zm11.75643,4.93987c0-1.84231-1.45048-3.04394-4.08609-3.04394h-5.61493v6.43435h5.45682c2.50362,0,4.2442-1.14801,4.2442-3.33679v-.05362Zm-3.87573,5.26022h-5.82529v6.59521h6.19512c2.79372,0,4.53292-1.25525,4.53292-3.33816v-.05362c0-2.02929-1.68695-3.20343-4.90275-3.20343Z"/>
          <path d="m163.71966,28.08086h2.02929v3.60489c1.00227-2.29602,2.97795-3.95272,5.56131-3.84549v2.21628h-.15811c-2.97795,0-5.4032,2.16266-5.4032,6.32848v5.50082h-2.02929v-13.80498Z"/>
          <path d="m172.05132,37.88087v-.05362c0-2.91058,2.37301-4.46005,5.82529-4.46005,1.7392,0,2.97795.2406,4.19058.58844v-.4812c0-2.483-1.50135-3.76437-4.05859-3.76437-1.60859,0-2.87346.42621-4.13833,1.01465l-.60631-1.68283c1.50272-.6943,2.97795-1.14801,4.955-1.14801,1.92481,0,3.40003.50732,4.4023,1.52197.92253.93491,1.39686,2.2699,1.39686,4.03247v8.43752h-1.95093v-2.08291c-.94865,1.25525-2.52974,2.37713-4.92888,2.37713-2.52974,0-5.08699-1.46973-5.08699-4.29919Zm10.04336-1.06827v-1.33499c-1.00227-.29422-2.34689-.58844-4.00772-.58844-2.55587,0-3.98022,1.12189-3.98022,2.85834v.05224c0,1.73645,1.58246,2.7511,3.42753,2.7511,2.50362,0,4.56041-1.54947,4.56041-3.73825Z"/>
          <path d="m187.73986,22.79314h2.31939v2.2699h-2.31939v-2.2699Zm.13199,5.28771h2.02929v13.80498h-2.02929v-13.80498Z"/>
          <path d="m193.96248,28.08086h2.02929v2.40326c.89641-1.49585,2.31939-2.69748,4.6649-2.69748,3.29554,0,5.21897,2.24377,5.21897,5.52832v8.57088h-2.02929v-8.06356c0-2.56412-1.37074-4.16583-3.76849-4.16583-2.34689,0-4.08609,1.73507-4.08609,4.32531v7.90407h-2.02929v-13.80498Z"/>
          <path d="m208.41089,40.12326l1.0284-1.46835c1.4766,1.12189,3.10994,1.76257,4.71852,1.76257,1.63471,0,2.81984-.85516,2.81984-2.19015v-.05362c0-1.38861-1.60721-1.92206-3.40003-2.42938-2.13516-.61456-4.50679-1.36249-4.50679-3.89911v-.05224c0-2.37713,1.94955-3.95272,4.63878-3.95272,1.66083,0,3.5059.58707,4.90275,1.52197l-.92253,1.54947c-1.26487-.82767-2.71535-1.33499-4.03247-1.33499-1.60859,0-2.63698.85379-2.63698,2.0018v.05362c0,1.30887,1.68695,1.81619,3.5059,2.37713,2.10904.64069,4.37618,1.46835,4.37618,3.95135v.05362c0,2.61636-2.13516,4.13833-4.85051,4.13833-1.95093,0-4.11221-.77405-5.64105-2.02929Z"/>
        </g>
        <g>
          <path d="m107.67071,49.51769h14.1102c4.03109,0,7.26476,1.23463,9.32706,3.32441,1.59346,1.61546,2.53112,3.9431,2.53112,6.55534v.09487c0,5.50907-3.74925,8.73999-8.90635,9.69002l10.0791,13.58362h-4.54804l-9.51541-12.91957h-9.3738v12.91957h-3.70388v-33.24826Zm13.7816,16.95616c4.922,0,8.43752-2.56412,8.43752-6.83856v-.09487c0-4.08471-3.09344-6.55534-8.39078-6.55534h-10.12448v13.48876h10.07773Z"/>
          <path d="m137.81179,70.55856v-.09487c0-7.07641,4.922-12.77658,11.62445-12.77658,7.17265,0,11.29723,5.79504,11.29723,12.96769,0,.47433,0,.75892-.04675,1.1865h-19.21918c.51557,5.31934,4.21945,8.31241,8.53101,8.31241,3.32854,0,5.67268-1.37761,7.64148-3.4674l2.24927,2.04304c-2.43763,2.75385-5.39083,4.60716-9.98424,4.60716-6.6557,0-12.09328-5.17773-12.09328-12.77796Zm19.26592-1.42436c-.37534-4.46417-2.90646-8.35915-7.73497-8.35915-4.21807,0-7.40638,3.56226-7.8752,8.35915h15.61017Z"/>
          <path d="m167.25031,61.43911h-3.32854v-3.18143h3.32854v-2.13791c0-2.80197.7493-4.93987,2.10904-6.31749,1.21813-1.23463,2.99995-1.89868,5.20247-1.89868,1.68833,0,2.81297.18973,3.98435.61731v3.18143c-1.31162-.37946-2.29602-.61731-3.51552-.61731-2.81159,0-4.21807,1.71033-4.21807,5.22447v1.99492h7.68685v3.13468h-7.6401v21.32684h-3.60901v-21.32684Z"/>
          <path d="m179.38895,75.64142v-.09487c0-5.17773,4.21945-7.93157,10.35958-7.93157,3.09344,0,5.29734.42621,7.45312,1.04489v-.85516c0-4.41743-2.67135-6.69695-7.21802-6.69695-2.85971,0-5.11036.75892-7.35963,1.80382l-1.07789-2.9917c2.67135-1.23463,5.29596-2.04304,8.81148-2.04304,3.42203,0,6.04664.90328,7.82846,2.70848,1.64021,1.66221,2.48437,4.03659,2.48437,7.17127v15.00936h-3.46877v-3.70525c-1.68695,2.23277-4.49992,4.2277-8.76474,4.2277-4.50129,0-9.04796-2.61224-9.04796-7.64698Zm17.85944-1.90006v-2.37438c-1.78044-.52245-4.17133-1.04489-7.12453-1.04489-4.54666,0-7.07778,1.99492-7.07778,5.08149v.09487c0,3.08794,2.81159,4.89313,6.09338,4.89313,4.45317,0,8.10893-2.75522,8.10893-6.6502Z"/>
          <path d="m205.68729,70.60668v-.09487c0-6.9348,5.34408-12.8247,12.42187-12.8247,4.59341,0,7.45312,1.94818,9.70239,4.37068l-2.38951,2.56412c-1.92206-2.04167-4.07921-3.70525-7.35963-3.70525-4.922,0-8.67262,4.2277-8.67262,9.50029v.09487c0,5.31934,3.84411,9.54703,8.90635,9.54703,3.09344,0,5.48432-1.56734,7.40638-3.65713l2.29739,2.18465c-2.43763,2.75522-5.34408,4.75014-9.89075,4.75014-7.07778,0-12.42187-5.84316-12.42187-12.72984Z"/>
          <path d="m234.04792,76.25873v-14.81962h-3.37528v-3.22955h3.37528v-7.40912h3.60901v7.40912h7.68685v3.22955h-7.68685v14.3453c0,2.9917,1.64021,4.08471,4.07784,4.08471,1.21813,0,2.24927-.23785,3.51552-.85516v3.13468c-1.26625.66543-2.62461,1.04489-4.35968,1.04489-3.89086,0-6.84268-1.94818-6.84268-6.9348Z"/>
          <path d="m248.34372,70.60668v-.09487c0-6.9348,5.34408-12.8247,12.65559-12.8247,7.26614,0,12.61022,5.79504,12.61022,12.72984v.09487c0,6.9348-5.39083,12.8247-12.70371,12.8247-7.26476,0-12.5621-5.79504-12.5621-12.72984Zm21.56194,0v-.09487c0-5.27259-3.89086-9.59515-8.99984-9.59515-5.24922,0-8.8596,4.32256-8.8596,9.50029v.09487c0,5.27259,3.84411,9.54703,8.95309,9.54703,5.25059,0,8.90635-4.27444,8.90635-9.45217Z"/>
          <path d="m278.95362,58.20956h3.60901v6.41235c1.78182-4.08471,5.29734-7.02966,9.89075-6.83993v3.9431h-.28047c-5.29734,0-9.61028,3.84686-9.61028,11.25599v9.78488h-3.60901v-24.55639Z"/>
          <path d="m297.70398,49.51769h3.7025v33.24826h-3.7025v-33.24826Z"/>
          <path d="m309.23356,58.20956h3.60901v4.27444c1.59346-2.65898,4.12596-4.79689,8.29729-4.79689,5.85966,0,9.28031,3.98985,9.28031,9.83163v15.24721h-3.60901v-14.34392c0-4.56041-2.43763-7.40912-6.70245-7.40912-4.1727,0-7.26614,3.08656-7.26614,7.69372v14.05933h-3.60901v-24.55639Z"/>
          <path d="m334.92146,79.63126l1.82856-2.61224c2.62461,1.99492,5.53107,3.13468,8.3894,3.13468,2.90646,0,5.01687-1.5206,5.01687-3.89498v-.09487c0-2.46925-2.85971-3.41928-6.04801-4.32256-3.79599-1.09164-8.01544-2.4225-8.01544-6.9348v-.09487c0-4.22632,3.46877-7.02966,8.25054-7.02966,2.9532,0,6.23362,1.04489,8.71799,2.70848l-1.64021,2.75385c-2.24927-1.47248-4.82851-2.37438-7.17127-2.37438-2.85971,0-4.68828,1.51922-4.68828,3.56226v.09487c0,2.32764,2.99995,3.22955,6.23499,4.2277,3.74925,1.13976,7.78034,2.61224,7.78034,7.02966v.09487c0,4.6539-3.79599,7.361-8.6245,7.361-3.46877,0-7.31288-1.37624-10.03098-3.60901Z"/>
          <path d="m359.20288,48.80551h4.12458v4.03659h-4.12458v-4.03659Zm.2351,9.40405h3.60901v24.55639h-3.60901v-24.55639Z"/>
          <path d="m369.98453,87.04039l1.64021-2.85009c2.76485,2.04304,5.85828,3.13468,9.32706,3.13468,5.34408,0,8.81286-2.9917,8.81286-8.73862v-2.89683c-2.10904,2.84871-5.06224,5.17635-9.51541,5.17635-5.81291,0-11.39072-4.41743-11.39072-11.49384v-.09487c0-7.17265,5.62456-11.59008,11.39072-11.59008,4.54666,0,7.49987,2.28089,9.46867,4.93987v-4.41743h3.60901v20.28195c0,3.80012-1.12464,6.69695-3.09344,8.69187-2.15578,2.18465-5.39083,3.27767-9.23357,3.27767-4.03247,0-7.78171-1.14113-11.01538-3.42065Zm19.87361-17.71646v-.09487c0-5.03474-4.31156-8.31241-8.90635-8.31241-4.59341,0-8.3894,3.23092-8.3894,8.26566v.09487c0,4.93987,3.88948,8.35915,8.3894,8.35915,4.59478,0,8.90635-3.37253,8.90635-8.31241Z"/>
          <path d="m400.21772,48.09333h3.60901v14.39067c1.59346-2.65898,4.12596-4.79689,8.29729-4.79689,5.85966,0,9.28031,3.98985,9.28031,9.83163v15.24721h-3.60901v-14.34392c0-4.56041-2.43763-7.40912-6.70245-7.40912-4.1727,0-7.26614,3.08656-7.26614,7.69372v14.05933h-3.60901v-34.67262Z"/>
          <path d="m429.18742,76.25873v-14.81962h-3.37528v-3.22955h3.37528v-7.40912h3.60901v7.40912h7.68685v3.22955h-7.68685v14.3453c0,2.9917,1.64021,4.08471,4.07784,4.08471,1.21813,0,2.24927-.23785,3.51552-.85516v3.13468c-1.26625.66543-2.62461,1.04489-4.35968,1.04489-3.89086,0-6.84268-1.94818-6.84268-6.9348Z"/>
          <path d="m459.18551,49.51769h12.28163c7.40638,0,12.28026,3.98985,12.28026,10.54518v.09487c0,7.17127-5.90503,10.87652-12.88932,10.87652h-7.96869v11.73169h-3.70388v-33.24826Zm11.8128,18.09729c5.43757,0,8.99984-2.94495,8.99984-7.31563v-.09487c0-4.74877-3.51552-7.21939-8.81286-7.21939h-8.29591v14.62989h8.10893Z"/>
          <path d="m489.04611,48.09333h3.60901v34.67262h-3.60901v-34.67262Z"/>
          <path d="m499.4978,73.45676v-15.24721h3.61038v14.34392c0,4.56041,2.43625,7.4105,6.70245,7.4105,4.12458,0,7.26476-3.08794,7.26476-7.6951v-14.05933h3.56364v24.55639h-3.56364v-4.27444c-1.64021,2.65898-4.12458,4.79689-8.29591,4.79689-5.85966,0-9.28169-3.98985-9.28169-9.83163Z"/>
          <path d="m527.29611,87.04039l1.64021-2.85009c2.76485,2.04304,5.85828,3.13468,9.32706,3.13468,5.34408,0,8.81286-2.9917,8.81286-8.73862v-2.89683c-2.10904,2.84871-5.06224,5.17635-9.51541,5.17635-5.81291,0-11.39072-4.41743-11.39072-11.49384v-.09487c0-7.17265,5.62456-11.59008,11.39072-11.59008,4.54666,0,7.49987,2.28089,9.46867,4.93987v-4.41743h3.60901v20.28195c0,3.80012-1.12464,6.69695-3.09344,8.69187-2.15578,2.18465-5.39083,3.27767-9.23357,3.27767-4.03247,0-7.78171-1.14113-11.01538-3.42065Zm19.87361-17.71646v-.09487c0-5.03474-4.31156-8.31241-8.90635-8.31241-4.59341,0-8.3894,3.23092-8.3894,8.26566v.09487c0,4.93987,3.88948,8.35915,8.3894,8.35915,4.59478,0,8.90635-3.37253,8.90635-8.31241Z"/>
          <path d="m557.62279,48.80551h4.12458v4.03659h-4.12458v-4.03659Zm.2351,9.40405h3.60901v24.55639h-3.60901v-24.55639Z"/>
          <path d="m568.68492,58.20956h3.60901v4.27444c1.59346-2.65898,4.12596-4.79689,8.29729-4.79689,5.85966,0,9.28031,3.98985,9.28031,9.83163v15.24721h-3.60901v-14.34392c0-4.56041-2.43763-7.40912-6.70245-7.40912-4.1727,0-7.26614,3.08656-7.26614,7.69372v14.05933h-3.60901v-24.55639Z"/>
        </g>
      </g>
      <path d="m48.73313,68.66381v14.95239h-26.26191V23.61624h26.26191v37.41146h-7.52745v-7.63611l-15.10159,11.81061,15.10159,10.928v-7.46639h7.52745Zm15.00363-30.09513v-7.46639s15.10159,10.928,15.10159,10.928l-15.10159,11.8106v-7.63611h-7.52745v37.41146h26.26191V23.61629h-26.26191v14.95239h7.52745Z" fill="url(#linear-gradient)"/>
    </g>
  </g>
</svg>